<svg version="1.1" id="Portuguese_x5F_OUTLINE_x5F_2020" xmlns="http://www.w3.org/2000/svg" xmlns:xlink="http://www.w3.org/1999/xlink" x="0px" y="0px" viewBox="0 0 313.39 158.56" style="enable-background:new 0 0 313.39 158.56;" xml:space="preserve">
<style type="text/css"> .st0{fill:none;}
</style>
<g> <rect x="0" y="0" class="st0" width="313.39" height="158.56"></rect>
</g>
<g> <g> <path d="M84.71,37.58h-7.07l-0.67,1.84c-0.56,1.5-0.67,2.17-0.67,2.61c0,0.5,0.45,0.78,1.72,0.89c0.06,0,0.11,0.17,0.11,0.33 c0,0.17-0.06,0.39-0.11,0.39h-6.45c-0.06,0-0.11-0.17-0.11-0.33c0-0.17,0.06-0.33,0.11-0.39c0.95-0.06,1.5-0.22,1.95-0.56 c0.61-0.44,1.28-1.56,3.06-6.23l1.67-4.34c0.95-2.5,1.95-5.12,2.73-7.45c0-0.11,0.33-0.17,0.67-0.17c0.33,0,0.67,0.06,0.72,0.17 c0.78,2.34,1.61,4.34,2.5,6.68l2,5.12c2.23,5.67,2.67,5.95,3.23,6.29c0.56,0.33,1,0.45,1.89,0.5c0.06,0,0.06,0.11,0.06,0.28 c0,0.22,0,0.45-0.06,0.45h-7.18c-0.06,0-0.06-0.22-0.06-0.45c0-0.17,0-0.28,0.06-0.28c0.95-0.06,1.56-0.28,1.56-0.72 c0-0.33-0.17-0.89-0.83-2.56L84.71,37.58z M78.2,36.19h6.01l-3.06-7.9L78.2,36.19z"></path> <path d="M98.84,43.64c0,0-0.06-0.17-0.06-0.28c0-0.22,0.06-0.39,0.11-0.44c1.22-0.11,2-0.28,2.34-0.5 c0.39-0.17,0.67-0.83,0.67-6.29v-4.34c0-5.45-0.28-6.12-0.67-6.29c-0.33-0.22-1.11-0.39-2.34-0.56c-0.06,0-0.11-0.28-0.11-0.44 c0-0.11,0.06-0.22,0.06-0.22h8.85c0,0,0.06,0.11,0.06,0.22c0,0.17-0.06,0.44-0.11,0.44c-1.22,0.17-2,0.33-2.34,0.56 c-0.39,0.17-0.67,0.83-0.67,6.29v4.34c0,5.45,0.28,6.12,0.67,6.29c0.33,0.22,1.11,0.39,2.34,0.5c0.06,0.06,0.11,0.22,0.11,0.44 c0,0.11-0.06,0.28-0.06,0.28H98.84z"></path> <path d="M130.11,34.57c0.06,0,0.06,0.17,0.06,0.33c0,0.22,0,0.39-0.11,0.39c-1.17,0.11-1.56,0.22-1.95,0.5 c-0.28,0.17-0.39,1.11-0.39,6.23v0.22c-1.67,1-4.51,1.67-7.01,1.67c-6.12,0-11.13-4.45-11.13-9.74c0-5.12,4.12-10.18,11.02-10.18 c2.84,0,4.78,0.83,5.95,0.83c0.17,0,0.28,0,0.39-0.06c0.17,0,0.22,0.06,0.22,0.11c0.06,1.06,0.17,2.89,0.17,4.51 c0,0.06-0.17,0.06-0.33,0.06c-0.22,0-0.45,0-0.45-0.11c-0.11-0.83-0.67-1.89-1.28-2.45c-1.11-1.06-3.12-1.78-5.17-1.78 c-4.9,0-7.46,3.73-7.46,8.23c0,4.95,3.28,9.35,9.07,9.35c1.39,0,2.39-0.22,3.28-0.61c-0.06-5.45-0.22-6.12-0.5-6.29 c-0.33-0.17-1.11-0.39-2.34-0.5c-0.06,0-0.11-0.17-0.11-0.33s0.06-0.39,0.11-0.39H130.11z"></path> <path d="M176.17,24.28c0,0,0.06,0.17,0.06,0.33c0,0.17-0.06,0.33-0.11,0.33c-1.22,0.17-2,0.33-2.34,0.56 c-0.56,0.33-0.56,5.45-0.56,6.29v8.51c0,5.34-1,7.23-6.4,9.46l-0.22,0.06c-0.17,0-0.28-0.61-0.28-0.67 c2.95-2.06,4.06-3.06,4.06-8.96v-8.4c0-5.45-0.28-6.12-0.67-6.29c-0.33-0.22-1.11-0.39-2.34-0.56c-0.06,0-0.11-0.28-0.11-0.44 c0-0.11,0.06-0.22,0.06-0.22H176.17z"></path> <path d="M188.63,37.58h-7.07l-0.67,1.84c-0.56,1.5-0.67,2.17-0.67,2.61c0,0.5,0.45,0.78,1.72,0.89c0.06,0,0.11,0.17,0.11,0.33 c0,0.17-0.06,0.39-0.11,0.39h-6.45c-0.06,0-0.11-0.17-0.11-0.33c0-0.17,0.06-0.33,0.11-0.39c0.95-0.06,1.5-0.22,1.95-0.56 c0.61-0.44,1.28-1.56,3.06-6.23l1.67-4.34c0.95-2.5,1.95-5.12,2.73-7.45c0-0.11,0.33-0.17,0.67-0.17c0.33,0,0.67,0.06,0.72,0.17 c0.78,2.34,1.61,4.34,2.5,6.68l2,5.12c2.23,5.67,2.67,5.95,3.23,6.29c0.56,0.33,1,0.45,1.89,0.5c0.06,0,0.06,0.11,0.06,0.28 c0,0.22,0,0.45-0.06,0.45h-7.18c-0.06,0-0.06-0.22-0.06-0.45c0-0.17,0-0.28,0.06-0.28c0.95-0.06,1.56-0.28,1.56-0.72 c0-0.33-0.17-0.89-0.83-2.56L188.63,37.58z M182.12,36.19h6.01l-3.06-7.9L182.12,36.19z"></path> <path d="M219.89,40.69c-2.11,2.06-4.45,3-8.34,3c-1.39,0-3.56-0.06-4.73-0.06c-1.11,0-2.78,0.06-4.12,0.06 c-0.06,0-0.11-0.17-0.11-0.33s0.06-0.33,0.11-0.39c1.22-0.11,1.72-0.28,2.11-0.5c0.39-0.17,0.67-0.89,0.67-6.34v-4.34 c0-5.45-0.28-6.18-0.67-6.34c-0.39-0.22-0.89-0.39-2.11-0.56c-0.06,0-0.11-0.17-0.11-0.33c0-0.17,0.06-0.33,0.11-0.33 c1.33,0,3,0.06,4.12,0.06c1.17,0,4.01-0.06,5.34-0.06c6.23,0,10.9,4.12,10.9,9.51C223.06,36.3,221.78,38.86,219.89,40.69z M211.27,25.34c-1.89,0-2.39,0.28-2.62,0.56c-0.17,0.22-0.44,1.67-0.44,5.79v4.45c0,3.62,0.28,5.23,0.67,5.67 c0.56,0.56,1,0.72,2.62,0.72c6.01,0,8.57-2.67,8.57-8.29C220.06,29.68,217.11,25.34,211.27,25.34z"></path> <path d="M238.58,43.2c-0.22,0.33-0.39,0.56-1.17,0.56c-1.89,0-4.12-0.11-6.68-0.11c-2,0-3.23,0-5.4,0.06 c-0.06,0-0.11-0.17-0.11-0.33s0.06-0.33,0.11-0.39c1.22-0.11,1.78-0.28,2.11-0.5c0.39-0.17,0.67-0.89,0.67-6.34v-4.34 c0-5.45-0.28-6.18-0.67-6.34c-0.33-0.22-0.89-0.39-2.11-0.56c-0.06,0-0.11-0.17-0.11-0.33c0-0.17,0.06-0.33,0.11-0.33 c2.39,0.06,6.17,0.06,8.18,0.06c2.67,0,4.01-0.11,5.01-0.11c0.11,0,0.11,0.06,0.11,0.11c-0.11,1-0.17,2.45-0.33,4.01 c0,0.06-0.17,0.11-0.33,0.11c-0.22,0-0.45-0.06-0.45-0.17c0-0.78-0.17-1.5-0.61-2c-0.5-0.5-1.39-0.78-3.56-0.78 c-1.22,0-2.06,0.06-2.39,0.06c-0.11,0.33-0.11,1.34-0.11,3.23v4.23h2.28c2.95,0,3.34-0.67,3.5-1.72c0-0.06,0.22-0.06,0.39-0.06 s0.39,0,0.39,0.06c-0.06,0.83-0.17,4.4-0.17,5.17c0,0.06-0.22,0.11-0.39,0.11c-0.22,0-0.39-0.06-0.39-0.11 c0-0.56-0.11-1.33-0.44-1.61c-0.28-0.22-0.72-0.56-2.95-0.56h-2.22v1.89c0,3.62,0.28,5.34,0.67,5.79 c0.39,0.33,0.78,0.56,2.62,0.56c1.89,0,2.95-0.44,3.5-1.06c0.44-0.44,0.78-1.06,1-2.06c0-0.06,0.11-0.06,0.17-0.06 c0.17,0,0.45,0.11,0.39,0.17C239.08,41.03,238.81,42.75,238.58,43.2z"></path> <path d="M47.01,56.54c0.04,0,0.08,0.2,0.08,0.4s-0.04,0.44-0.12,0.44c-1.55,0.16-2.55,0.28-3.03,0.56 c-0.52,0.28-0.84,1.35-0.84,8.6v10.67c0,6.97-1.35,10.12-8.28,13.34l-0.12,0.04c-0.16,0-0.32-0.24-0.32-0.44 c0-0.04,0-0.08,0.04-0.12c3.5-2.55,5.34-4.26,5.34-12.7V66.54c0-7.25-0.36-8.32-0.84-8.6s-1.51-0.4-3.07-0.56 c-0.08-0.04-0.12-0.28-0.12-0.48c0-0.2,0.04-0.36,0.08-0.36H47.01z"></path> <path d="M65.81,62.04c0,0.08-0.16,0.08-0.32,0.08c-0.24,0-0.56-0.04-0.56-0.2c0-0.96-0.28-2.07-0.92-2.71 c-0.8-0.88-1.79-1.19-4.06-1.19c-1.55,0-3.03,0-3.39,0.08c-0.12,0.4-0.16,1.87-0.16,4.38v5.73h3.27c3.78,0,3.9-1.08,4.14-2.51 c0-0.08,0.2-0.12,0.4-0.12c0.24,0,0.48,0.04,0.48,0.12l-0.24,7.17c0,0.04-0.2,0.08-0.4,0.08c-0.24,0-0.48-0.04-0.48-0.12 c0-0.72-0.2-2.07-0.56-2.47c-0.36-0.36-0.56-0.6-3.39-0.6h-3.23v2.67c0,5.14,0.24,7.49,0.6,7.85s1.59,0.52,3.94,0.52 c2.47,0,3.39-0.6,4.1-1.35c0.48-0.52,0.96-1.67,1.31-3.19c0-0.08,0.12-0.08,0.24-0.08c0.28,0,0.64,0.12,0.64,0.24 c-0.2,2.51-0.64,5.42-0.68,5.5c-0.2,0.24-1.39,0.56-3.07,0.56c-2.39,0-3.62-0.12-6.93-0.12c-2.59,0-4.5,0.04-7.33,0.08 c-0.04,0-0.08-0.16-0.08-0.36s0.04-0.52,0.12-0.56c1.55-0.16,2.47-0.28,2.95-0.56s0.84-1.35,0.84-8.6v-5.81 c0-7.25-0.36-8.4-0.84-8.68s-1.39-0.4-2.95-0.56c-0.08-0.04-0.12-0.28-0.12-0.48c0-0.2,0.04-0.36,0.08-0.36 c1.79,0.04,4.26,0.08,6.53,0.08h4.38c3.34,0,4.66-0.04,5.85-0.2c0.2,0,0.24,0.08,0.24,0.16C66.16,57.9,66.04,59.89,65.81,62.04z"></path> <path d="M77.4,82.91c-3.3,0-6.01-1.47-6.37-1.99c-0.04-0.08-0.28-2.75-0.28-4.86c0-0.52,0-1,0.04-1.39c0-0.12,0.24-0.16,0.48-0.16 c0.2,0,0.44,0.04,0.44,0.16c0.08,1.51,0.84,3.54,1.39,4.38c1,1.51,2.71,2.51,5.14,2.51c2.75,0,4.26-1.83,4.26-4.7 c0-6.29-10.47-6.61-10.47-13.86c0-3.78,3.07-7.01,7.25-7.01c2.75,0,3.35,0.76,4.7,0.76c0.16,0,0.32-0.04,0.56-0.04 c0.12,0,0.16,0.04,0.16,0.12c0.04,0.92,0.04,2.27,0.04,3.7c0,0.72,0,1.47-0.04,2.19c0,0.04-0.16,0.08-0.36,0.08 c-0.24,0-0.52-0.04-0.56-0.16c-0.12-1.59-0.48-2.99-1.23-3.86c-0.88-0.96-1.99-1.55-3.7-1.55c-2.15,0-3.78,1.87-3.78,4.34 c0,5.38,10.63,6.69,10.63,13.58C85.68,80.12,81.42,82.91,77.4,82.91z"></path> <path d="M115.31,57.02c0,0.16-0.04,0.36-0.12,0.36c-1.55,0.16-2.35,0.28-2.79,0.68c-0.32,0.28-0.68,1.23-0.68,8.48v6.69 c0,4.78-3.66,9.36-10.47,9.36c-6.21,0-10-4.1-10-9.28v-6.77c0-7.25-0.36-8.32-0.84-8.6c-0.52-0.28-1.19-0.4-2.75-0.56 c-0.08-0.04-0.12-0.28-0.12-0.48c0-0.2,0.04-0.36,0.08-0.36h10.75c0.04,0,0.08,0.16,0.08,0.36c0,0.2-0.04,0.44-0.12,0.48 c-1.55,0.16-2.39,0.28-2.91,0.56c-0.48,0.28-0.84,1.35-0.84,8.6v6.05c0,4.38,2.75,8,8,8c4.9,0,7.33-3.7,7.33-7.57v-6.49 c0-7.25-0.4-8.2-0.72-8.48c-0.44-0.4-1.35-0.52-2.95-0.68c-0.08,0-0.12-0.2-0.12-0.4c0-0.2,0.04-0.44,0.12-0.44h8.92 C115.27,56.54,115.31,56.78,115.31,57.02z"></path> <path d="M123.36,82.91c-3.3,0-6.01-1.47-6.37-1.99c-0.04-0.08-0.28-2.75-0.28-4.86c0-0.52,0-1,0.04-1.39 c0-0.12,0.24-0.16,0.48-0.16c0.2,0,0.44,0.04,0.44,0.16c0.08,1.51,0.84,3.54,1.39,4.38c1,1.51,2.71,2.51,5.14,2.51 c2.75,0,4.26-1.83,4.26-4.7c0-6.29-10.47-6.61-10.47-13.86c0-3.78,3.07-7.01,7.25-7.01c2.75,0,3.35,0.76,4.7,0.76 c0.16,0,0.32-0.04,0.56-0.04c0.12,0,0.16,0.04,0.16,0.12c0.04,0.92,0.04,2.27,0.04,3.7c0,0.72,0,1.47-0.04,2.19 c0,0.04-0.16,0.08-0.36,0.08c-0.24,0-0.52-0.04-0.56-0.16c-0.12-1.59-0.48-2.99-1.23-3.86c-0.88-0.96-1.99-1.55-3.7-1.55 c-2.15,0-3.78,1.87-3.78,4.34c0,5.38,10.63,6.69,10.63,13.58C131.64,80.12,127.38,82.91,123.36,82.91z"></path> <path d="M166.05,63.87c-0.24,0-0.48-0.08-0.52-0.2c-0.16-1.63-0.68-2.99-1.63-4.02c-1.2-1.23-3.7-2.27-6.37-2.27 c-6.93,0-9.64,5.58-9.64,11.23c0,6.49,4.1,12.74,10.2,12.74c2.95,0,4.86-0.84,6.21-2.51c0.84-1.04,1.31-2.23,1.67-3.42 c0-0.08,0.12-0.12,0.24-0.12c0.28,0,0.64,0.12,0.64,0.24c-0.12,1.67-0.84,5.38-0.92,5.5c-0.12,0.2-2.79,1.87-7.93,1.87 c-8.48,0-13.86-5.93-13.86-13.14c0-6.81,4.9-13.78,13.78-13.78c4.06,0,6.29,1.23,7.73,1.23c0.16,0,0.32-0.04,0.44-0.04 c0.16,0,0.24,0.08,0.24,0.16l0.12,6.41C166.45,63.83,166.25,63.87,166.05,63.87z"></path> <path d="M216.24,82.91c-3.3,0-6.01-1.47-6.37-1.99c-0.04-0.08-0.28-2.75-0.28-4.86c0-0.52,0-1,0.04-1.39 c0-0.12,0.24-0.16,0.48-0.16c0.2,0,0.44,0.04,0.44,0.16c0.08,1.51,0.84,3.54,1.39,4.38c1,1.51,2.71,2.51,5.14,2.51 c2.75,0,4.26-1.83,4.26-4.7c0-6.29-10.47-6.61-10.47-13.86c0-3.78,3.07-7.01,7.25-7.01c2.75,0,3.35,0.76,4.7,0.76 c0.16,0,0.32-0.04,0.56-0.04c0.12,0,0.16,0.04,0.16,0.12c0.04,0.92,0.04,2.27,0.04,3.7c0,0.72,0,1.47-0.04,2.19 c0,0.04-0.16,0.08-0.36,0.08c-0.24,0-0.52-0.04-0.56-0.16c-0.12-1.59-0.48-2.99-1.23-3.86c-0.88-0.96-1.99-1.55-3.7-1.55 c-2.15,0-3.78,1.87-3.78,4.34c0,5.38,10.63,6.69,10.63,13.58C224.52,80.12,220.26,82.91,216.24,82.91z"></path> <path d="M249.54,62.88c0,0.08-0.2,0.16-0.4,0.16c-0.24,0-0.48-0.08-0.48-0.24c0-1-0.12-2.91-0.8-3.62 c-0.8-0.84-2.43-1.51-5.93-1.51c-0.92,0-1.39,0-1.79,0.08c-0.12,0.4-0.16,2.31-0.16,4.82v9.8c0,7.25,0.36,8.32,0.84,8.6 c0.48,0.28,1.47,0.4,3.07,0.56c0.08,0.04,0.12,0.28,0.12,0.48s-0.04,0.36-0.08,0.36h-11.23c-0.04,0-0.08-0.16-0.08-0.32 c0-0.24,0.04-0.48,0.16-0.52c1.55-0.16,2.55-0.28,3.03-0.56c0.52-0.28,0.84-1.35,0.84-8.6v-9.8c0-2.51-0.04-4.42-0.16-4.82 c-0.4-0.08-1.08-0.08-1.99-0.08c-3.74,0-5.02,0.4-5.93,1.51c-0.64,0.76-1.04,2.15-1.31,3.7c0,0.12-0.16,0.16-0.32,0.16 c-0.24,0-0.56-0.08-0.56-0.24c0.24-2.07,0.48-5.1,0.6-6.45c0-0.08,0.12-0.16,0.32-0.16h0.16c1.39,0.24,3.94,0.36,10.87,0.36 c9.52,0,10.39-0.2,11.11-0.44c0.04,0,0.12-0.04,0.16-0.04c0.16,0,0.28,0.12,0.28,0.2C249.86,57.78,249.78,60.76,249.54,62.88z"></path> <path d="M264.15,82.91c-7.29,0-13.06-5.93-13.06-13.14c0-7.13,5.5-13.78,13.66-13.78c7.29,0,13.06,5.93,13.06,13.14 C277.82,76.26,272.32,82.91,264.15,82.91z M263.96,57.42c-6.97,0-9.24,6.05-9.24,11.19c0,6.49,3.98,12.86,10.24,12.86 c6.97,0,9.24-6.05,9.24-11.19C274.19,63.79,270.17,57.42,263.96,57.42z"></path> <path d="M93.57,99.71c0-3.08-0.22-3.41-0.48-3.52c-0.26-0.15-0.59-0.26-1.41-0.37c-0.07,0-0.07-0.11-0.07-0.22s0-0.41,0.04-0.41 h0.26c0.45,0,1.82,0.07,2.86,0.07c1.56,0,3.23-0.11,4.04-0.11c4.49,0,7.19,2.82,7.19,6.41c0,1.71-0.82,3.37-2.08,4.6 c-1.41,1.37-3.11,2.11-5.71,2.11c-0.74,0-1.89-0.11-2.71-0.11c-1.37,0-2.93,0.04-3.86,0.04c-0.04,0-0.04-0.26-0.04-0.37 s0-0.22,0.07-0.26c0.82-0.07,1.22-0.22,1.48-0.37c0.26-0.11,0.41-0.41,0.41-4.04V99.71z M95.87,99.26v4.38 c0,2.04,0.19,2.85,0.45,3.11c0.37,0.37,0.78,0.48,1.85,0.48c3.23,0,5.15-1.59,5.15-5.34c0-3.04-1.71-5.75-5.01-5.75 c-1.56,0-2,0.22-2.15,0.41C96.05,96.7,95.87,97.26,95.87,99.26z"></path> <path d="M115.41,108.35c-4.08,0-7.04-2.93-7.04-6.56c0-3.45,2.97-6.71,7.3-6.71c4.08,0,7.04,2.82,7.04,6.45 C122.71,104.97,119.75,108.35,115.41,108.35z M115.26,96.07c-3.26,0-4.23,2.86-4.23,5.19c0,3.04,1.74,6.08,4.78,6.08 c3.26,0,4.23-2.97,4.23-5.3C120.04,99,118.27,96.07,115.26,96.07z"></path> <path d="M128.76,108.35c-1.93,0-3.56-0.96-3.6-1.19c-0.07-0.37-0.11-0.85-0.11-1.41c0-0.48,0.04-1.41,0.07-1.89 c0-0.04,0.18-0.07,0.33-0.07c0.11,0,0.33,0.04,0.33,0.07c0.07,0.78,0.37,1.71,0.67,2.15c0.59,0.78,1.3,1.33,2.48,1.33 c1.22,0,2.23-0.74,2.23-2.11c0-2.93-5.79-3.37-5.79-6.67c0-2.04,1.74-3.49,4.34-3.49c1.59,0,2.34,0.37,3.11,0.37 c0.07,0,0.15,0.04,0.15,0.07c-0.04,0.37-0.04,0.78-0.04,1.26v1.74c0,0.04-0.19,0.07-0.3,0.07s-0.41-0.04-0.41-0.07 c-0.04-0.63-0.33-1.41-0.67-1.74c-0.44-0.44-1.41-0.7-2.04-0.7c-0.82,0-1.78,0.56-1.78,1.78c0,2.48,5.79,3.38,5.79,6.64 C133.54,106.97,131.5,108.35,128.76,108.35z"></path> <path d="M145.56,108.35c-1.93,0-3.56-0.96-3.6-1.19c-0.07-0.37-0.11-0.85-0.11-1.41c0-0.48,0.04-1.41,0.07-1.89 c0-0.04,0.18-0.07,0.33-0.07c0.11,0,0.33,0.04,0.33,0.07c0.07,0.78,0.37,1.71,0.67,2.15c0.59,0.78,1.3,1.33,2.48,1.33 c1.22,0,2.23-0.74,2.23-2.11c0-2.93-5.79-3.37-5.79-6.67c0-2.04,1.74-3.49,4.34-3.49c1.59,0,2.34,0.37,3.11,0.37 c0.07,0,0.15,0.04,0.15,0.07c-0.04,0.37-0.04,0.78-0.04,1.26v1.74c0,0.04-0.19,0.07-0.3,0.07s-0.41-0.04-0.41-0.07 c-0.04-0.63-0.33-1.41-0.67-1.74c-0.44-0.44-1.41-0.7-2.04-0.7c-0.82,0-1.78,0.56-1.78,1.78c0,2.48,5.79,3.38,5.79,6.64 C150.34,106.97,148.3,108.35,145.56,108.35z"></path> <path d="M190.68,107.2c0.26,0.15,0.67,0.26,1.48,0.33c0.04,0.04,0.07,0.15,0.07,0.3c0,0.07-0.04,0.33-0.04,0.33h-6.19 c-0.04,0-0.04-0.26-0.04-0.37s0-0.22,0.07-0.26c0.82-0.07,1.22-0.19,1.48-0.33c0.26-0.11,0.41-0.41,0.41-4.04v-4.38 c0-1.26,0-2.34-0.07-2.56c-0.19,0-0.56-0.04-1-0.04c-2.11,0-2.52,0.3-3,0.74c-0.33,0.3-0.52,1.11-0.63,1.59 c0,0.04-0.04,0.04-0.11,0.04c-0.15,0-0.59-0.07-0.59-0.11l0.3-3.34c0-0.04,0.07-0.15,0.15-0.15c0.74,0.11,2.6,0.3,6.16,0.3 c4.89,0,5.82-0.19,6.19-0.33c0.07,0,0.15,0.11,0.15,0.15c0,0.78-0.04,2.37-0.18,3.45c0,0-0.3,0.04-0.41,0.04 c-0.15,0-0.3-0.04-0.3-0.07c0-0.52-0.11-1.26-0.37-1.56c-0.37-0.41-0.74-0.74-2.97-0.74c-0.45,0-0.7,0.04-0.89,0.04 c-0.07,0.22-0.11,1.3-0.11,2.56v4.38C190.24,106.79,190.42,107.09,190.68,107.2z"></path> <path d="M203.66,108.35c-4.08,0-7.04-2.93-7.04-6.56c0-3.45,2.97-6.71,7.3-6.71c4.08,0,7.04,2.82,7.04,6.45 C210.96,104.97,207.99,108.35,203.66,108.35z M203.51,96.07c-3.26,0-4.23,2.86-4.23,5.19c0,3.04,1.74,6.08,4.78,6.08 c3.26,0,4.23-2.97,4.23-5.3C208.29,99,206.51,96.07,203.51,96.07z"></path> <path d="M217.01,108.35c-1.93,0-3.56-0.96-3.6-1.19c-0.07-0.37-0.11-0.85-0.11-1.41c0-0.48,0.04-1.41,0.07-1.89 c0-0.04,0.18-0.07,0.33-0.07c0.11,0,0.33,0.04,0.33,0.07c0.07,0.78,0.37,1.71,0.67,2.15c0.59,0.78,1.3,1.33,2.48,1.33 c1.22,0,2.23-0.74,2.23-2.11c0-2.93-5.79-3.37-5.79-6.67c0-2.04,1.74-3.49,4.34-3.49c1.59,0,2.34,0.37,3.11,0.37 c0.07,0,0.15,0.04,0.15,0.07c-0.04,0.37-0.04,0.78-0.04,1.26v1.74c0,0.04-0.19,0.07-0.3,0.07s-0.41-0.04-0.41-0.07 c-0.04-0.63-0.33-1.41-0.67-1.74c-0.44-0.44-1.41-0.7-2.04-0.7c-0.82,0-1.78,0.56-1.78,1.78c0,2.48,5.79,3.38,5.79,6.64 C221.79,106.97,219.75,108.35,217.01,108.35z"></path> <path d="M59.64,123.36c0-3.08-0.22-3.41-0.48-3.52c-0.26-0.15-0.59-0.26-1.41-0.37c-0.07,0-0.07-0.11-0.07-0.22s0-0.41,0.04-0.41 h0.26c0.45,0,1.82,0.07,2.86,0.07c1.56,0,3.23-0.11,4.04-0.11c4.49,0,7.19,2.82,7.19,6.42c0,1.71-0.82,3.37-2.08,4.6 c-1.41,1.37-3.11,2.11-5.71,2.11c-0.74,0-1.89-0.11-2.71-0.11c-1.37,0-2.93,0.04-3.86,0.04c-0.04,0-0.04-0.26-0.04-0.37 c0-0.11,0-0.22,0.07-0.26c0.82-0.07,1.22-0.22,1.48-0.37c0.26-0.11,0.41-0.41,0.41-4.04V123.36z M61.94,122.91v4.38 c0,2.04,0.19,2.86,0.45,3.11c0.37,0.37,0.78,0.48,1.85,0.48c3.23,0,5.15-1.59,5.15-5.34c0-3.04-1.71-5.75-5.01-5.75 c-1.56,0-2,0.22-2.15,0.41C62.13,120.35,61.94,120.91,61.94,122.91z"></path> <path d="M81.48,132c-4.08,0-7.04-2.93-7.04-6.56c0-3.45,2.97-6.71,7.3-6.71c4.08,0,7.04,2.82,7.04,6.45 C88.79,128.62,85.82,132,81.48,132z M81.33,119.72c-3.26,0-4.23,2.86-4.23,5.19c0,3.04,1.74,6.08,4.78,6.08 c3.26,0,4.23-2.97,4.23-5.3C86.12,122.65,84.34,119.72,81.33,119.72z"></path> <path d="M94.83,132c-1.93,0-3.56-0.96-3.6-1.19c-0.07-0.37-0.11-0.85-0.11-1.41c0-0.48,0.04-1.41,0.07-1.89 c0-0.04,0.18-0.07,0.33-0.07c0.11,0,0.33,0.04,0.33,0.07c0.07,0.78,0.37,1.71,0.67,2.15c0.59,0.78,1.3,1.33,2.48,1.33 c1.22,0,2.23-0.74,2.23-2.11c0-2.93-5.79-3.37-5.79-6.67c0-2.04,1.74-3.49,4.34-3.49c1.59,0,2.34,0.37,3.11,0.37 c0.07,0,0.15,0.04,0.15,0.07c-0.04,0.37-0.04,0.78-0.04,1.26v1.74c0,0.04-0.19,0.07-0.3,0.07s-0.41-0.04-0.41-0.07 c-0.04-0.63-0.33-1.41-0.67-1.74c-0.44-0.45-1.41-0.71-2.04-0.71c-0.82,0-1.78,0.56-1.78,1.78c0,2.48,5.79,3.37,5.79,6.64 C99.61,130.62,97.57,132,94.83,132z"></path> <path d="M120.56,119.87c-0.11,0.11-0.22,0.96-0.22,3.52v3.78c0,2.41-1.78,4.82-5.45,4.82s-5.56-2.15-5.56-4.78v-3.34 c0-3.52-0.15-3.93-0.22-3.97c-0.3-0.19-0.67-0.33-1.41-0.41c-0.22,0-0.22-0.11-0.22-0.3c0-0.15,0.04-0.3,0.26-0.3h5.56 c0.22,0,0.22,0.04,0.22,0.3c0,0.19-0.04,0.3-0.22,0.3c-0.74,0.11-1.15,0.26-1.45,0.44c-0.04,0.04-0.22,0.41-0.22,3.93v2.97 c0,2.37,1.45,3.89,3.74,3.89c2.23,0,3.6-1.56,3.6-3.67v-3.67c0-2.71-0.18-3.41-0.3-3.52c-0.19-0.19-0.56-0.26-1.22-0.37 c-0.33,0-0.33-0.11-0.33-0.26s0-0.33,0.33-0.33h4.38c0.22,0,0.22,0.19,0.22,0.33c0,0.19-0.11,0.26-0.33,0.26 C121.05,119.57,120.79,119.69,120.56,119.87z M117.15,114.31c0.26,0.45,0.67,1.3,0.67,1.41c0,0.15-0.11,0.26-0.3,0.26 c-0.74,0-1.52,0.15-2.3,0.41l-1.08,0.33c-0.48,0.15-0.67,0.26-1.04,0.26c-0.26,0-0.33-0.15-0.33-0.3s0.04-0.3,0.22-0.41l3.3-2.11 c0.15-0.11,0.33-0.19,0.41-0.19C116.86,113.98,117,114.09,117.15,114.31z"></path> <path d="M129.69,119.2c0,0.11-0.04,0.3-0.07,0.3c-0.82,0.11-1.15,0.22-1.41,0.37c-0.26,0.11-0.45,0.41-0.45,4.04v3.6 c0,2.82,0,3.37,1.85,3.37c1.15,0,2.23-0.15,2.71-0.7c0.45-0.52,0.74-1.37,0.89-2c0-0.04,0.3-0.04,0.37-0.04 c0.15,0,0.37,0.04,0.37,0.11c-0.11,1.04-0.41,2.97-0.59,3.26c-0.15,0.22-0.37,0.41-0.89,0.41c-1,0-3.04-0.11-4.49-0.11 c-1.48,0-3.26,0.07-4.52,0.11c-0.04,0-0.04-0.22-0.04-0.33c0-0.11,0-0.33,0.07-0.37c0.82-0.07,1.3-0.22,1.56-0.37 c0.26-0.11,0.41-0.41,0.41-4.04v-2.89c0-3.63-0.15-3.93-0.41-4.04c-0.26-0.15-0.74-0.26-1.56-0.37c-0.07,0-0.07-0.11-0.07-0.22 s0-0.37,0.04-0.37h6.19C129.65,118.91,129.69,119.13,129.69,119.2z"></path> <path d="M141.7,130.85c0.26,0.15,0.67,0.26,1.48,0.33c0.04,0.04,0.07,0.15,0.07,0.3c0,0.07-0.04,0.33-0.04,0.33h-6.19 c-0.04,0-0.04-0.26-0.04-0.37c0-0.11,0-0.22,0.07-0.26c0.82-0.07,1.22-0.19,1.48-0.33c0.26-0.11,0.41-0.41,0.41-4.04v-4.38 c0-1.26,0-2.34-0.07-2.56c-0.19,0-0.56-0.04-1-0.04c-2.11,0-2.52,0.3-3,0.74c-0.33,0.3-0.52,1.11-0.63,1.59 c0,0.04-0.04,0.04-0.11,0.04c-0.15,0-0.59-0.07-0.59-0.11l0.3-3.34c0-0.04,0.07-0.15,0.15-0.15c0.74,0.11,2.6,0.3,6.16,0.3 c4.89,0,5.82-0.19,6.19-0.33c0.07,0,0.15,0.11,0.15,0.15c0,0.78-0.04,2.37-0.18,3.45c0,0-0.3,0.04-0.41,0.04 c-0.15,0-0.3-0.04-0.3-0.07c0-0.52-0.11-1.26-0.37-1.56c-0.37-0.41-0.74-0.74-2.97-0.74c-0.45,0-0.7,0.04-0.89,0.04 c-0.07,0.22-0.11,1.3-0.11,2.56v4.38C141.25,130.44,141.44,130.74,141.7,130.85z"></path> <path d="M152.53,126.8c0,3.63,0.19,3.93,0.45,4.04c0.26,0.15,0.67,0.26,1.48,0.33c0.04,0.04,0.07,0.15,0.07,0.3 c0,0.07-0.04,0.33-0.04,0.33h-6.27c-0.04,0-0.04-0.26-0.04-0.37c0-0.11,0-0.22,0.07-0.26c0.82-0.07,1.3-0.19,1.56-0.33 c0.26-0.11,0.41-0.41,0.41-4.04v-2.89c0-3.63-0.22-3.93-0.48-4.04c-0.26-0.15-0.67-0.26-1.48-0.37c-0.07,0-0.07-0.11-0.07-0.22 s0-0.37,0.04-0.37h6.27c0,0,0.04,0.22,0.04,0.3c0,0.11-0.04,0.3-0.07,0.3c-0.82,0.11-1.22,0.22-1.48,0.37 c-0.26,0.11-0.45,0.41-0.45,4.04V126.8z"></path> <path d="M168.69,131.81c-0.04,0-0.15-0.15-0.15-0.3c0-0.11,0.04-0.33,0.07-0.33c0.56-0.04,1-0.11,1.22-0.26 c0.11-0.07,0.19-0.33,0.19-0.78c0-0.89-0.15-2.04-0.19-2.45l-0.48-4.34l-4.19,8.57c0,0.07-0.19,0.07-0.33,0.07 c-0.19,0-0.56,0-0.56-0.07l-4.63-8.97l-0.37,3.75c-0.15,1.37-0.19,2.26-0.19,2.89c0,1.22,0.41,1.52,1.71,1.59 c0.04,0,0.07,0.11,0.07,0.22c0,0.11-0.04,0.41-0.07,0.41h-5.23c0,0-0.04-0.22-0.04-0.3c0-0.15,0.04-0.3,0.11-0.33 c0.82-0.07,1.26-0.19,1.48-0.37c0.15-0.11,0.48-0.37,0.82-4l0.26-2.89c0.15-1.67,0.33-3.56,0.41-5.12c0-0.04,0.41-0.11,0.59-0.11 c0.11,0,0.74,0.04,0.74,0.07l5.34,9.97l4.89-9.97c0.04-0.04,0.52-0.07,0.63-0.07c0.22,0,0.67,0.07,0.67,0.11 c0.11,1.74,0.22,3.3,0.45,5.12l0.33,2.89c0.41,3.63,0.56,3.93,0.78,4.04c0.26,0.15,0.63,0.26,1.45,0.33 c0.04,0.04,0.07,0.33,0.07,0.33c0,0.22-0.04,0.3-0.07,0.3H168.69z"></path> <path d="M182.67,132c-4.08,0-7.04-2.93-7.04-6.56c0-3.45,2.97-6.71,7.3-6.71c4.08,0,7.04,2.82,7.04,6.45 C189.98,128.62,187.01,132,182.67,132z M182.52,119.72c-3.26,0-4.23,2.86-4.23,5.19c0,3.04,1.74,6.08,4.78,6.08 c3.26,0,4.23-2.97,4.23-5.3C187.31,122.65,185.53,119.72,182.52,119.72z"></path> <path d="M196.02,132c-1.93,0-3.56-0.96-3.6-1.19c-0.07-0.37-0.11-0.85-0.11-1.41c0-0.48,0.04-1.41,0.07-1.89 c0-0.04,0.18-0.07,0.33-0.07c0.11,0,0.33,0.04,0.33,0.07c0.07,0.78,0.37,1.71,0.67,2.15c0.59,0.78,1.3,1.33,2.48,1.33 c1.22,0,2.23-0.74,2.23-2.11c0-2.93-5.79-3.37-5.79-6.67c0-2.04,1.74-3.49,4.34-3.49c1.59,0,2.34,0.37,3.11,0.37 c0.07,0,0.15,0.04,0.15,0.07c-0.04,0.37-0.04,0.78-0.04,1.26v1.74c0,0.04-0.19,0.07-0.3,0.07s-0.41-0.04-0.41-0.07 c-0.04-0.63-0.33-1.41-0.67-1.74c-0.44-0.45-1.41-0.71-2.04-0.71c-0.82,0-1.78,0.56-1.78,1.78c0,2.48,5.79,3.37,5.79,6.64 C200.8,130.62,198.76,132,196.02,132z"></path> <path d="M211.07,123.36c0-3.08-0.22-3.41-0.48-3.52c-0.26-0.15-0.59-0.26-1.41-0.37c-0.07,0-0.07-0.11-0.07-0.22s0-0.41,0.04-0.41 h0.26c0.45,0,1.82,0.07,2.86,0.07c1.56,0,3.23-0.11,4.04-0.11c4.49,0,7.19,2.82,7.19,6.42c0,1.71-0.82,3.37-2.08,4.6 c-1.41,1.37-3.11,2.11-5.71,2.11c-0.74,0-1.89-0.11-2.71-0.11c-1.37,0-2.93,0.04-3.86,0.04c-0.04,0-0.04-0.26-0.04-0.37 c0-0.11,0-0.22,0.07-0.26c0.82-0.07,1.22-0.22,1.48-0.37c0.26-0.11,0.41-0.41,0.41-4.04V123.36z M213.37,122.91v4.38 c0,2.04,0.19,2.86,0.45,3.11c0.37,0.37,0.78,0.48,1.85,0.48c3.23,0,5.15-1.59,5.15-5.34c0-3.04-1.71-5.75-5.01-5.75 c-1.56,0-2,0.22-2.15,0.41C213.56,120.35,213.37,120.91,213.37,122.91z"></path> <path d="M250.93,132c-1.93,0-3.56-0.96-3.6-1.19c-0.07-0.37-0.11-0.85-0.11-1.41c0-0.48,0.04-1.41,0.07-1.89 c0-0.04,0.18-0.07,0.33-0.07c0.11,0,0.33,0.04,0.33,0.07c0.07,0.78,0.37,1.71,0.67,2.15c0.59,0.78,1.3,1.33,2.48,1.33 c1.22,0,2.23-0.74,2.23-2.11c0-2.93-5.79-3.37-5.79-6.67c0-2.04,1.74-3.49,4.34-3.49c1.59,0,2.34,0.37,3.11,0.37 c0.07,0,0.15,0.04,0.15,0.07c-0.04,0.37-0.04,0.78-0.04,1.26v1.74c0,0.04-0.19,0.07-0.3,0.07s-0.41-0.04-0.41-0.07 c-0.04-0.63-0.33-1.41-0.67-1.74c-0.44-0.45-1.41-0.71-2.04-0.71c-0.82,0-1.78,0.56-1.78,1.78c0,2.48,5.79,3.37,5.79,6.64 C255.72,130.62,253.68,132,250.93,132z"></path> </g> <path d="M163.93,39.3c-0.06,0-0.17,0-0.17,0.06c-0.22,1-0.56,1.61-1,2.06c-0.56,0.61-1.61,1.06-3.5,1.06 c-1.84,0-2.22-0.22-2.61-0.56c-0.39-0.45-0.67-2.17-0.67-5.79v-1.89h2.23c2.23,0,2.67,0.33,2.95,0.56 c0.33,0.28,0.45,1.06,0.45,1.61c0,0.06,0.17,0.11,0.39,0.11c0.17,0,0.39-0.06,0.39-0.11c0-0.78,0.11-4.34,0.17-5.17 c0-0.06-0.22-0.06-0.39-0.06s-0.39,0-0.39,0.06c-0.17,1.06-0.56,1.72-3.5,1.72h-2.28v-4.23c0-1.89,0-2.89,0.11-3.23 c0.33,0,1.17-0.06,2.39-0.06c2.17,0,3.06,0.28,3.56,0.78c0.45,0.5,0.61,1.22,0.61,2c0,0.11,0.22,0.17,0.44,0.17 c0.17,0,0.33-0.06,0.33-0.11c0.17-1.56,0.22-3,0.33-4.01c0-0.06,0-0.11-0.11-0.11c-1,0-2.34,0.11-5.01,0.11c-2,0-5.79,0-8.18-0.06 c-0.06,0-0.11,0.17-0.11,0.33c0,0.17,0.06,0.33,0.11,0.33c1.22,0.17,1.78,0.33,2.11,0.56c0.39,0.17,0.67,0.89,0.67,6.34v4.34 c0,4.26-0.17,5.6-0.43,6.09c-0.19,0.29-0.94,0.62-1.65,0.62c-0.71,0-1.5-0.28-1.81-0.43c0,0,0,0,0,0.01 c-1.82-0.9-3.84-3.24-6.9-7.67c2.17-1.28,3.95-3.23,3.95-5.62c0-2.45-2.61-4.9-7.23-4.9c-1.39,0-2.61,0.06-3.73,0.06 c-1.17,0-2.78-0.06-4.17-0.06c-0.06,0-0.06,0.11-0.06,0.28c0,0.17,0,0.39,0.11,0.39c1.17,0.17,1.72,0.33,2.11,0.56 c0.33,0.17,0.61,0.83,0.61,6.29v4.34c0,5.45-0.28,6.18-0.61,6.34c-0.39,0.22-0.95,0.39-2.11,0.5c-0.11,0.06-0.11,0.28-0.11,0.44 s0,0.28,0.06,0.28h8.9c0,0,0.06-0.17,0.06-0.28c0-0.22-0.06-0.39-0.11-0.44c-1.33-0.11-2.28-0.28-2.67-0.5 c-0.39-0.17-0.67-0.89-0.67-6.34v-0.67c0.83,0.06,1.33,0.06,2.06,0.06h1.11c2.45,4.06,4.17,6.12,5.73,7.18 c1.22,0.78,2.73,1.06,4.62,1.06c0.06,0,0.11,0,0.16,0c0,0,0,0,0,0c2.17-0.06,3.39-0.06,5.4-0.06c2.56,0,4.79,0.11,6.68,0.11 c0.78,0,0.95-0.22,1.17-0.56c0.22-0.44,0.5-2.17,0.61-3.73C164.38,39.41,164.1,39.3,163.93,39.3z M139.45,34.41 c-1.45,0-2.06-0.22-2.39-0.5c-0.17-0.17-0.28-0.39-0.28-2.17c0-3.95,0.28-5.79,0.5-6.01c0.11-0.22,0.78-0.39,1.84-0.39 c2.95,0,4.17,2.11,4.17,4.78C143.29,32.4,141.73,34.41,139.45,34.41z"></path> <path d="M203.1,80.96c-0.48-0.28-0.84-1.35-0.84-8.6v-5.81c0-7.25,0.36-8.32,0.84-8.6c0.48-0.28,1.47-0.4,3.07-0.56 c0.08-0.04,0.12-0.28,0.12-0.48c0-0.2-0.04-0.36-0.08-0.36h-11.19c-0.08,0-0.12,0.16-0.12,0.36c0,0.2,0.04,0.44,0.16,0.48 c1.55,0.16,2.55,0.28,3.03,0.56c0.52,0.28,0.84,1.35,0.84,8.6v5.81c0,7.25-0.32,8.32-0.84,8.6c-0.21,0.12-0.53,0.21-0.94,0.29 c-0.7,0.12-0.96,0.11-1.49,0.11c-2.79,0-5.7-3.07-10.99-11.03c2.79-1.71,4.78-4.34,4.78-7.53c0-3.03-2.99-6.33-8.92-6.33 c-1.79,0-3.39,0.08-4.86,0.08c-1.47,0-3.5-0.08-5.26-0.08c-0.08,0-0.12,0.2-0.12,0.4s0.04,0.44,0.16,0.44 c1.55,0.16,2.23,0.28,2.71,0.56c0.52,0.28,0.84,1.43,0.84,8.68v5.81c0,7.25-0.32,8.32-0.84,8.6c-0.48,0.28-1.15,0.4-2.71,0.56 c-0.12,0.04-0.16,0.24-0.16,0.44c0,0.2,0.04,0.4,0.12,0.4h11.27c0.04,0,0.08-0.16,0.08-0.36s-0.04-0.44-0.12-0.48 c-1.75-0.2-2.95-0.28-3.46-0.56c-0.48-0.28-0.84-1.35-0.84-8.6v-1.04c0.88,0.04,1.55,0.08,2.31,0.08c0.56,0,1.15-0.04,1.95-0.04 c3.23,5.46,5.38,8.32,7.41,9.72c1.55,1.04,3.08,1.28,5.51,1.28c0.92,0,1.65,0,2.53,0h9.17c0.04,0,0.08-0.16,0.08-0.36 s-0.04-0.44-0.12-0.48C204.57,81.35,203.57,81.24,203.1,80.96z M180.87,69.96c-1.91,0-3.03-0.16-3.31-0.44 c-0.16-0.16-0.24-0.6-0.24-2.99c0-5.77,0.24-8.12,0.4-8.36c0.16-0.16,1.35-0.36,2.71-0.36c3.82,0,5.22,2.75,5.22,6.57 C185.65,67.5,184.14,69.96,180.87,69.96z"></path> <path d="M181.26,95.26h-5.38c0,0-0.04,0.26-0.04,0.33c0,0.15,0.04,0.26,0.07,0.3c0.82,0.07,1.22,0.19,1.48,0.33 c0.19,0.07,0.48,0.26,0.52,2.41l0.07,6.04l-9.68-9.57c0-0.04-0.37-0.07-0.52-0.07c-0.33,0-0.45,0.07-0.45,0.15 c0,0.48,0.19,3.41,0.19,5.08v4.56c0,1.96-0.26,2.25-0.44,2.37c-0.15,0.1-0.84,0.31-1.49,0.31c-0.69,0-1.08-0.22-1.33-0.39 c-0.43-0.29-0.96-1.41-1.3-2.22l-3.89-9.86c0-0.07-0.52-0.11-0.74-0.11s-0.63,0.04-0.67,0.11l-3.74,9.6 c-0.52,1.33-0.96,2.15-1.41,2.48c-0.3,0.22-0.71,0.33-1.33,0.41c-0.04,0-0.04,0.18-0.04,0.26c0,0.11,0,0.37,0.04,0.37h5.08 c0.04,0,0.04-0.26,0.04-0.37c0-0.07,0-0.26-0.04-0.26c-0.89-0.11-1.52-0.3-1.52-0.67c0-0.48,0.37-1.33,0.7-2.19l0.22-0.59h4.6 c0.71,1.71,0.96,2.52,0.96,2.89c0,0.3-0.52,0.45-1.3,0.56c-0.04,0-0.04,0.18-0.04,0.26c0,0.11,0,0.37,0.04,0.37h5.64h0.09h5.29 c0,0,0.04-0.26,0.04-0.33c0-0.15-0.04-0.26-0.07-0.3c-0.82-0.07-1.22-0.19-1.48-0.33c-0.19-0.07-0.48-0.26-0.52-2.41L168.84,99 l9.49,9.23c0.04,0.04,0.19,0.07,0.33,0.07c0.19,0,0.74-0.07,0.74-0.15c-0.11-1.56-0.11-3.34-0.11-5.01v-4.56 c0-1.96,0.26-2.3,0.45-2.37c0.26-0.15,0.67-0.26,1.48-0.33c0.07-0.04,0.07-0.15,0.07-0.26C181.3,95.52,181.3,95.26,181.26,95.26z M156.01,103.08l1.85-5.01l2,5.01H156.01z"></path> <path d="M246.15,131.18c-0.59-0.07-0.93-0.19-1.22-0.41c-0.37-0.19-0.96-1.41-1.3-2.22l-3.89-9.86c0-0.07-0.52-0.11-0.74-0.11 s-0.63,0.04-0.67,0.11l-3.74,9.6c-0.52,1.33-0.96,2.15-1.41,2.48c-0.2,0.15-0.45,0.25-0.78,0.32c-0.08,0.02-0.17,0.03-0.26,0.04 c-0.28,0.03-0.6,0.04-0.91,0.01c-0.42-0.05-0.72-0.12-0.93-0.2c-0.08-0.03-0.15-0.06-0.21-0.09c-0.06-0.03-0.11-0.07-0.16-0.16 c-0.16-0.29-0.27-1.11-0.27-3.88v-2.89c0-3.63,0.19-3.93,0.45-4.04c0.26-0.15,0.67-0.26,1.48-0.37c0.04,0,0.07-0.19,0.07-0.3 c0-0.07-0.04-0.3-0.04-0.3h-6.27c-0.04,0-0.04,0.26-0.04,0.37s0,0.22,0.07,0.22c0.82,0.11,1.22,0.22,1.48,0.37 c0.26,0.11,0.48,0.41,0.48,4.04v2.89c0,3.63-0.15,3.93-0.41,4.04c-0.26,0.15-0.74,0.26-1.56,0.33c-0.07,0.04-0.07,0.15-0.07,0.26 c0,0.11,0,0.37,0.04,0.37h6.49h0.07h5.01c0.04,0,0.04-0.26,0.04-0.37c0-0.07,0-0.26-0.04-0.26c-0.89-0.11-1.52-0.3-1.52-0.67 c0-0.48,0.37-1.33,0.7-2.19l0.22-0.59h4.6c0.71,1.71,0.96,2.52,0.96,2.89c0,0.3-0.52,0.45-1.3,0.56c-0.04,0-0.04,0.19-0.04,0.26 c0,0.11,0,0.37,0.04,0.37h5.56c0.04,0,0.07-0.26,0.07-0.37C246.22,131.33,246.19,131.18,246.15,131.18z M236.66,126.73l1.85-5.01 l2,5.01H236.66z"></path>
</g>
</svg>